HIERARCHY
ROOT Hips
{
	OFFSET 0.00000 0.00000 0.00000
	CHANNELS 6 Xposition Yposition Zposition Zrotation Yrotation Xrotation 
	JOINT LHipJoint
	{
		OFFSET 0 0 0
		CHANNELS 3 Zrotation Yrotation Xrotation
		JOINT LeftHip
		{
			OFFSET 1.51378 -1.89840 0.47569
			CHANNELS 3 Zrotation Yrotation Xrotation
			JOINT LeftKnee
			{
				OFFSET 2.53380 -6.96157 0.00000
				CHANNELS 3 Zrotation Yrotation Xrotation
				JOINT LeftAnkle
				{
					OFFSET 2.74874 -7.55212 0.00000
					CHANNELS 3 Zrotation Yrotation Xrotation
					JOINT LeftToe
					{
						OFFSET 0.18263 -0.50178 1.99677
						CHANNELS 3 Zrotation Yrotation Xrotation
						End Site
						{
							OFFSET 0.00000 -0.00000 1.03711
						}
					}
				}
			}
		}
	}
	JOINT RHipJoint
	{
		OFFSET 0 0 0
		CHANNELS 3 Zrotation Yrotation Xrotation
		JOINT RightHip
		{
			OFFSET -1.43037 -1.89840 0.47569
			CHANNELS 3 Zrotation Yrotation Xrotation
			JOINT RightKnee
			{
				OFFSET -2.69849 -7.41406 0.00000
				CHANNELS 3 Zrotation Yrotation Xrotation
				JOINT RightAnkle
				{
					OFFSET -2.69369 -7.40087 0.00000
					CHANNELS 3 Zrotation Yrotation Xrotation
					JOINT RightToe
					{
						OFFSET -0.28932 -0.79491 2.04975
						CHANNELS 3 Zrotation Yrotation Xrotation
						End Site
						{
							OFFSET 0.00009 0.00010 1.09536
						}
					}
				}
			}
		}
	}
	JOINT lowerback
	{
		OFFSET 0 0 0
		CHANNELS 3 Zrotation Yrotation Xrotation
		JOINT Chest
		{
			OFFSET 0.01912 1.94784 -0.02419
			CHANNELS 3 Zrotation Yrotation Xrotation
			JOINT Chest2
			{
				OFFSET 0.07565 1.94258 0.01909
				CHANNELS 3 Zrotation Yrotation Xrotation
				JOINT lowerneck
				{
					OFFSET 0 0 0
					CHANNELS 3 Zrotation Yrotation Xrotation
					JOINT Neck
					{
						OFFSET -0.07010 1.86195 0.18976
						CHANNELS 3 Zrotation Yrotation Xrotation
						JOINT Head
						{
							OFFSET 0.02284 1.86595 -0.31497
							CHANNELS 3 Zrotation Yrotation Xrotation
							End Site
							{
								OFFSET 0.01200 1.90122 -0.12838
							}
						}
					}
				}
				JOINT LeftCollar
				{
					OFFSET 0 0 0
					CHANNELS 3 Zrotation Yrotation Xrotation
					JOINT LeftShoulder
					{
						OFFSET 3.39189 0.96331 -0.10437
CHANNELS 3 Zrotation Xrotation Yrotation
						JOINT LeftElbow
						{
OFFSET 0 -5.148450 0.000000
CHANNELS 3 Zrotation Xrotation Yrotation
							JOINT LeftWrist
							{
OFFSET 0 -3.436740 -0.000000
CHANNELS 3 Zrotation Xrotation Yrotation
								JOINT lhand
								{
									OFFSET 0 0 0
CHANNELS 3 Zrotation Xrotation Yrotation
									JOINT LFingers
									{
OFFSET 0 -0.588710 0.000000
CHANNELS 3 Zrotation Xrotation Yrotation
										End Site
										{
OFFSET 0 -0.474630 0.000000
										}
									}
								}
								JOINT LThumb
								{
OFFSET 0 0.000000 0.000000
CHANNELS 3 Zrotation Xrotation Yrotation
									End Site
									{
OFFSET 0 -0.481880 0.481880
									}
								}
							}
						}
					}
				}
				JOINT RightCollar
				{
					OFFSET 0 0 0
					CHANNELS 3 Zrotation Yrotation Xrotation
					JOINT RightShoulder
					{
						OFFSET -3.34934 1.18831 -0.19928
CHANNELS 3 Zrotation Xrotation Yrotation
						JOINT RightElbow
						{
OFFSET 0 -5.421850 0.000000
CHANNELS 3 Zrotation Xrotation Yrotation
							JOINT RightWrist
							{
OFFSET 0 -3.513170 -0.000000
CHANNELS 3 Zrotation Xrotation Yrotation
								JOINT rhand
								{
									OFFSET 0 0 0
CHANNELS 3 Zrotation Xrotation Yrotation
									JOINT RFingers
									{
OFFSET 0 -0.663190 0.000000
CHANNELS 3 Zrotation Xrotation Yrotation
										End Site
										{
OFFSET 0 -0.534680 0.000000
										}
									}
								}
								JOINT RThumb
								{
OFFSET 0 0.000000 0.000000
CHANNELS 3 Zrotation Xrotation Yrotation
									End Site
									{
OFFSET 0 -0.542840 0.542840
									}
								}
							}
						}
					}
				}
			}
		}
	}
}
MOTION
Frames: 12
Frame Time: 0.008333333333333333
11.577629 18.260261 -7.088997 -99.269732 -85.612563 109.530047 0.000000 0.000000 0.000000 -17.380328 -5.528240 -18.173792 1.557692 7.876613 22.340048 -0.085061 12.127348 -16.067329 0.000169 -0.052314 -0.143798 0.000000 0.000000 0.000000 21.622388 4.646506 -22.658741 -4.282403 -12.526490 37.621606 -0.965156 -10.610212 -25.227363 -0.108925 -2.128094 5.859840 -1.073547 1.255818 4.570856 2.345059 1.367298 6.522518 3.008495 0.481911 4.095326 -8.701737 -3.724220 -6.001901 0.593020 -5.496113 33.157598 0.990759 -3.875651 12.182646 0.000000 0.000000 0.000000 14.052917 30.431249 -55.688036 60.453652 -56.429379 34.718898 39.940352 11.981660 4.141066 0.000000 0.000000 0.000000 -7.125000 0.000000 0.000000 9.912376 24.585867 4.960607 0.000000 0.000000 0.000000 -27.744448 22.172258 69.624616 -57.270715 -55.537718 -32.080283 -75.028944 -40.538829 -40.822155 0.000000 0.000000 0.000000 7.125000 0.000000 0.000000 -18.426246 -41.105623 -26.550098
11.815293 18.302239 -7.492136 -135.396005 -84.488457 146.853287 0.000000 0.000000 0.000000 -16.459273 -5.523939 -19.311511 1.390768 7.461233 21.089188 -0.458740 14.839216 -14.949971 0.012868 -0.731098 -2.009252 0.000000 0.000000 0.000000 22.205713 4.833793 -18.436327 -2.497287 -9.832760 28.437142 -1.137162 -8.809786 -25.123767 -0.049735 1.438879 -3.957237 -1.603796 1.249813 4.053928 2.052227 1.380431 6.302279 3.009727 0.480393 4.148505 -8.309991 -3.634011 -5.952945 0.723236 -5.505108 32.786665 0.976442 -3.820973 12.003916 0.000000 0.000000 0.000000 14.882157 30.650582 -57.072848 61.137638 -56.605453 35.289302 41.008439 12.329002 2.901310 0.000000 0.000000 0.000000 -7.125000 0.000000 0.000000 10.887534 26.109724 5.071379 0.000000 0.000000 0.000000 -27.433223 22.308713 70.131100 -56.368366 -55.261825 -31.337501 -74.379570 -40.388491 -40.868559 0.000000 0.000000 0.000000 7.125000 0.000000 0.000000 -18.060657 -40.549559 -25.997026
12.052787 18.329491 -7.910855 -151.591321 -81.460084 164.396669 0.000000 0.000000 0.000000 -14.516880 -6.739964 -20.053587 1.270274 7.143451 20.141015 -1.073435 19.264658 -14.751247 0.002098 0.293081 0.805198 0.000000 0.000000 0.000000 23.242396 8.608333 -18.418943 -2.151391 -9.174482 26.342720 -1.133794 -7.753937 -24.317218 -0.011269 0.685474 -1.883668 -1.219888 1.303358 3.501004 2.217872 1.455089 6.162511 2.975637 0.529707 4.313210 -7.990041 -3.459021 -6.502355 0.238841 -5.087596 32.255602 0.784858 -3.637114 11.852051 0.000000 0.000000 0.000000 14.289536 30.411800 -56.838899 59.539860 -56.185966 33.958506 42.736951 14.902479 1.893987 0.000000 0.000000 0.000000 -7.125000 0.000000 0.000000 12.342485 27.336511 5.413091 0.000000 0.000000 0.000000 -28.178938 22.012391 71.233473 -56.110278 -55.181055 -31.125510 -75.072988 -42.377377 -41.582236 0.000000 0.000000 0.000000 7.125000 0.000000 0.000000 -17.971988 -41.687401 -25.871383
12.170788 18.325277 -8.351367 -158.467848 -78.903274 171.108669 0.000000 0.000000 0.000000 -13.074471 -6.448727 -19.406395 1.241774 7.065864 19.910552 -1.480704 21.900556 -15.360034 0.016843 0.836269 2.298369 0.000000 0.000000 0.000000 24.361892 8.921656 -18.678223 -2.209271 -9.289003 26.703747 -1.252221 -4.494329 -23.192992 0.000000 0.031348 -0.086106 -0.940422 0.993124 2.726999 2.768123 0.995864 6.387025 3.408365 0.277918 5.013656 -8.232772 -3.582868 -6.669513 0.775834 -5.353294 31.517721 0.997245 -3.706847 11.625021 0.000000 0.000000 0.000000 13.952002 30.186050 -57.379218 59.288494 -56.117334 33.749719 40.813346 11.459139 3.429537 0.000000 0.000000 0.000000 -7.125000 0.000000 0.000000 10.661176 25.437586 5.132829 0.000000 0.000000 0.000000 -29.337713 21.859961 71.578016 -57.242760 -55.529301 -32.057170 -77.456465 -45.215047 -39.350953 0.000000 0.000000 0.000000 7.125000 0.000000 0.000000 -20.680806 -42.383924 -29.952194
12.186260 18.299673 -8.753806 -160.780259 -76.363248 172.376255 0.000000 0.000000 0.000000 -11.703286 -4.740366 -18.935113 1.474402 7.672470 21.723673 -1.537889 22.751607 -17.361707 0.078330 1.805201 4.967719 0.000000 0.000000 0.000000 26.187017 9.046195 -16.887878 -2.115320 -9.102306 26.115966 -1.278708 -2.759865 -22.514907 -0.000782 -0.179418 0.492920 0.640515 0.614389 2.532460 3.266471 0.475091 5.879956 3.024806 0.086521 4.634304 -7.886259 -3.530957 -6.595205 1.135023 -5.649126 32.226054 1.020019 -3.823256 11.902542 0.000000 0.000000 0.000000 13.257859 30.553105 -57.397515 57.229342 -55.525239 32.046157 40.869911 11.168801 3.050030 0.000000 0.000000 0.000000 -7.125000 0.000000 0.000000 10.761749 25.925843 5.057366 0.000000 0.000000 0.000000 -29.256382 22.050333 70.977334 -57.269519 -55.537324 -32.079274 -79.722701 -48.588321 -41.755231 0.000000 0.000000 0.000000 7.125000 0.000000 0.000000 -20.331805 -46.092732 -29.320463
12.149134 18.259436 -9.090792 -162.721068 -73.841831 173.011745 0.000000 0.000000 0.000000 -10.846845 -0.905827 -21.249750 2.300646 9.465437 27.262868 -1.712170 22.892179 -13.929480 0.107610 -2.093119 -5.763846 0.000000 0.000000 0.000000 27.619128 9.500645 -14.559665 -2.068107 -9.006487 25.815659 -1.350293 -1.251946 -22.444984 -0.005698 -0.488664 1.342708 1.830390 0.407958 1.658416 4.121267 0.077958 5.967915 3.249792 -0.100348 5.253992 -7.088060 -3.695961 -6.891910 1.192877 -6.148529 32.487031 0.825374 -3.975680 12.061879 0.000000 0.000000 0.000000 11.880190 29.889457 -56.897029 56.120683 -55.184216 31.134117 41.253780 10.124869 2.873356 0.000000 0.000000 0.000000 -7.125000 0.000000 0.000000 11.073958 26.130716 5.156139 0.000000 0.000000 0.000000 -30.394668 21.610122 71.407430 -58.076899 -55.775313 -32.745888 -77.277941 -44.037463 -38.832590 0.000000 0.000000 0.000000 7.125000 0.000000 0.000000 -20.888074 -41.835476 -30.277698
12.108420 18.259064 -9.376501 -167.035311 -71.710884 175.767937 0.000000 0.000000 0.000000 -11.012011 3.234281 -26.795221 4.197403 12.418147 37.228473 -1.503347 21.199290 -10.529769 0.061355 1.530297 4.210140 0.000000 0.000000 0.000000 28.069478 9.644022 -12.337235 -2.068403 -9.007166 25.817621 -1.308808 -1.555558 -22.228219 -0.012721 0.727722 -1.999828 2.383172 0.400541 2.004038 4.262284 0.090149 5.590969 3.077470 -0.071319 4.662403 -6.252291 -3.628772 -6.204852 1.801533 -6.817361 33.827308 0.814776 -4.204350 12.490606 0.000000 0.000000 0.000000 11.791196 29.651860 -56.524351 54.844304 -54.771788 30.088790 42.451009 12.459297 1.579086 0.000000 0.000000 0.000000 -7.125000 0.000000 0.000000 12.181772 27.767843 5.211895 0.000000 0.000000 0.000000 -30.415779 22.041050 71.064514 -58.287552 -55.836097 -32.920154 -76.149447 -42.511147 -38.471147 0.000000 0.000000 0.000000 7.125000 0.000000 0.000000 -20.450053 -40.445144 -29.609929
12.053395 18.236099 -9.606741 -172.670352 -70.089952 179.955574 0.000000 0.000000 0.000000 -12.217844 4.774117 -31.893913 5.990493 14.419022 44.943408 -0.947539 17.008710 -8.235868 0.260236 3.273081 9.040748 0.000000 0.000000 0.000000 27.286628 10.425619 -10.607151 -2.208624 -9.287656 26.699430 -1.417180 -1.601928 -23.124121 -0.049056 1.426039 -3.922008 1.921358 0.514818 1.904964 4.277918 0.206535 5.927487 3.362403 -0.043983 5.066545 -6.063872 -3.572471 -6.361744 1.949175 -7.013050 34.653973 0.790158 -4.290367 12.882878 0.000000 0.000000 0.000000 12.106951 28.716748 -57.315076 54.795663 -54.755459 30.049085 42.338645 11.521567 2.432888 0.000000 0.000000 0.000000 -7.125000 0.000000 0.000000 11.953594 26.646905 5.423182 0.000000 0.000000 0.000000 -30.622464 21.995755 70.607546 -59.167536 -56.083956 -33.649367 -78.687617 -48.176697 -42.783827 0.000000 0.000000 0.000000 7.125000 0.000000 0.000000 -19.029973 -45.745846 -27.388972
11.940725 18.194143 -9.799501 -175.149164 -68.922999 181.700761 0.000000 0.000000 0.000000 -13.770725 3.729117 -33.660967 5.259066 13.669228 41.929145 -0.028298 5.561015 -7.023366 0.895347 -6.026481 -16.862549 0.000000 0.000000 0.000000 27.106631 10.696031 -9.671095 -2.384495 -9.624820 27.770037 -1.565074 -0.677178 -23.912874 -0.015553 -0.800868 2.201094 2.033277 0.466955 1.954210 4.316942 0.142523 5.853171 3.336850 -0.072556 4.963950 -6.177550 -3.500140 -6.550515 2.258962 -7.085609 35.027399 0.904500 -4.322014 13.107029 0.000000 0.000000 0.000000 11.932398 28.829130 -57.445170 54.384524 -54.617718 29.713517 44.214083 14.213522 0.902009 0.000000 0.000000 0.000000 -7.125000 0.000000 0.000000 13.636252 28.604754 5.588964 0.000000 0.000000 0.000000 -30.320061 22.252597 70.241928 -58.979867 -56.031920 -33.493629 -80.875708 -50.557196 -40.738361 0.000000 0.000000 0.000000 7.125000 0.000000 0.000000 -21.728334 -46.610349 -31.396752
11.759921 18.217565 -9.937688 -176.032693 -68.152186 182.817162 0.000000 0.000000 0.000000 -14.681133 -1.355936 -31.088390 2.763589 10.301736 29.959764 -0.157298 7.954283 -6.911501 0.313613 -3.598054 -9.948761 0.000000 0.000000 0.000000 27.020136 10.202128 -8.557183 -2.151937 -9.175573 26.346063 -1.563075 0.444477 -23.517494 -0.073011 -1.742832 4.795471 2.842437 0.425474 1.836874 4.348050 0.110868 5.388501 2.907512 -0.045853 4.547243 -5.873807 -3.289671 -7.114939 1.769637 -6.669591 35.349922 0.693922 -4.163192 13.312947 0.000000 0.000000 0.000000 12.001358 29.213459 -57.402763 54.729291 -54.733527 29.994827 42.936828 12.355704 1.772450 0.000000 0.000000 0.000000 -7.125000 0.000000 0.000000 12.513566 27.488262 5.446023 0.000000 0.000000 0.000000 -30.327873 22.849685 70.581906 -59.007793 -56.039720 -33.516761 -76.975412 -44.785969 -39.942366 0.000000 0.000000 0.000000 7.125000 0.000000 0.000000 -20.022798 -42.306033 -28.955973
11.518620 18.223082 -10.108394 -175.204628 -67.213665 182.665119 0.000000 0.000000 0.000000 -15.881633 -4.504777 -26.973524 0.602679 4.960444 13.797549 -0.443209 11.702865 -4.171790 1.519242 -7.782176 -22.054996 0.000000 0.000000 0.000000 27.593287 9.946822 -7.617998 -1.972809 -8.809140 25.200208 -1.611903 1.879965 -23.482194 -0.102936 -2.068312 5.694478 3.170478 0.523084 1.454420 4.676438 0.227879 4.995154 3.066317 0.018693 4.351458 -5.983117 -2.946845 -7.474213 1.554252 -6.076051 35.632341 0.693561 -3.952895 13.481848 0.000000 0.000000 0.000000 11.800218 29.350556 -57.536750 54.650496 -54.707226 29.930565 42.708532 13.054794 1.236663 0.000000 0.000000 0.000000 -7.125000 0.000000 0.000000 12.434648 28.210824 5.192435 0.000000 0.000000 0.000000 -31.310745 23.310740 71.946017 -59.058265 -56.053590 -33.558683 -75.561693 -42.329680 -39.759862 0.000000 0.000000 0.000000 7.125000 0.000000 0.000000 -19.357623 -40.828575 -27.953224
11.231339 18.169066 -10.282232 -173.046853 -66.654190 181.480544 0.000000 0.000000 0.000000 -16.571285 -6.864024 -23.816619 0.046894 1.397169 3.842369 -0.360267 11.066002 -0.611902 3.753789 -11.817018 -35.098862 0.000000 0.000000 0.000000 28.645008 9.269502 -7.131367 -1.865865 -8.580940 24.492974 -1.720010 2.831436 -24.059868 -0.014440 -0.767655 2.109709 3.598421 0.663256 0.940176 4.870643 0.377607 4.803433 3.036033 0.105099 4.443253 -5.622509 -2.782892 -7.621790 1.257417 -5.772916 35.585219 0.553318 -3.805410 13.452366 0.000000 0.000000 0.000000 11.957245 29.003147 -58.262285 54.033984 -54.498333 29.427960 42.468234 12.325261 1.828629 0.000000 0.000000 0.000000 -7.125000 0.000000 0.000000 12.152235 27.436300 5.296593 0.000000 0.000000 0.000000 -31.086507 23.818481 71.448496 -59.448609 -56.161046 -33.882746 -76.441268 -44.564366 -40.138386 0.000000 0.000000 0.000000 7.125000 0.000000 0.000000 -19.604650 -41.932850 -28.326619
